<svg width="30" height="30" viewBox="0 0 30 30" fill="none" xmlns="http://www.w3.org/2000/svg">
<path fill-rule="evenodd" clip-rule="evenodd" d="M0.661865 0L0 0.94519L3.09338 3.11121L3.75531 2.16608L0.661865 0ZM6.20825 7.67023L4.82959 12.8156L3.71497 12.517L5.09363 7.37164L6.20825 7.67023ZM8.89124 2.27454L11.4387 0.490723L12.1006 1.43591L9.5531 3.21973L8.89124 2.27454Z" transform="translate(7.3349 10.1174)" fill="#3A3B3C"/>
<path fill-rule="evenodd" clip-rule="evenodd" d="M20.1923 10.3846C17.3247 10.3846 15 8.05994 15 5.19232C15 2.32471 17.3247 0 20.1923 0C23.0599 0 25.3846 2.32471 25.3846 5.19232C25.3846 8.05994 23.0599 10.3846 20.1923 10.3846ZM16.7308 5.19232C16.7308 3.28363 18.2836 1.73077 20.1923 1.73077C22.101 1.73077 23.6539 3.28363 23.6539 5.19232C23.6539 7.10101 22.101 8.65387 20.1923 8.65387C18.2836 8.65387 16.7308 7.10101 16.7308 5.19232ZM3.46155 9.23077C1.5498 9.23077 0 7.68097 0 5.76923C0 3.85748 1.5498 2.30768 3.46155 2.30768C5.37329 2.30768 6.9231 3.85748 6.9231 5.76923C6.9231 7.68097 5.37329 9.23077 3.46155 9.23077ZM3.46155 4.03845C2.5072 4.03845 1.73077 4.81488 1.73077 5.76923C1.73077 6.72357 2.5072 7.5 3.46155 7.5C4.41589 7.5 5.19232 6.72357 5.19232 5.76923C5.19232 4.81488 4.41589 4.03845 3.46155 4.03845ZM7.61694 21.3462C7.61694 20.71 8.13458 20.1923 8.77081 20.1923C9.40704 20.1923 9.92462 20.71 9.92462 21.3462C9.92462 21.9824 9.40704 22.5 8.77081 22.5C8.13458 22.5 7.61694 21.9824 7.61694 21.3462ZM8.77081 24.2308C7.17767 24.2308 5.88617 22.9393 5.88617 21.3462C5.88617 19.7531 7.17767 18.4615 8.77081 18.4615C10.3639 18.4615 11.6554 19.7531 11.6554 21.3462C11.6554 22.9393 10.3639 24.2308 8.77081 24.2308Z" transform="translate(2.30768 3.46155)" fill="#989A9B"/>
<path fill-rule="evenodd" clip-rule="evenodd" d="M4.03845 8.0769C1.80811 8.0769 0 6.26886 0 4.03845C0 1.80811 1.80811 0 4.03845 0C6.26886 0 8.0769 1.80811 8.0769 4.03845C8.0769 6.26886 6.26886 8.0769 4.03845 8.0769ZM4.03845 1.73077C2.76599 1.73077 1.73077 2.76599 1.73077 4.03845C1.73077 5.31091 2.76599 6.34613 4.03845 6.34613C5.31091 6.34613 6.34613 5.31091 6.34613 4.03845C6.34613 2.76599 5.31091 1.73077 4.03845 1.73077Z" transform="translate(9.6972 10.8016)" fill="#58595A"/>
</svg>
