<svg width="30" height="30" viewBox="0 0 30 30" fill="none" xmlns="http://www.w3.org/2000/svg">
<path fill-rule="evenodd" clip-rule="evenodd" d="M16.1671 15.8066L19.9871 21.2622C19.0555 22.0944 18.0266 22.8195 16.9178 23.4165L13.1041 17.97C11.9601 18.467 10.7018 18.75 9.375 18.75C4.19736 18.75 0 14.5527 0 9.375C0 4.19727 4.19736 0 9.375 0C14.5526 0 18.75 4.19727 18.75 9.375C18.75 11.8716 17.7583 14.1266 16.1671 15.8066ZM9.375 1.875C5.23944 1.875 1.875 5.2395 1.875 9.375C1.875 13.5105 5.23944 16.875 9.375 16.875C13.5104 16.875 16.875 13.5105 16.875 9.375C16.875 5.2395 13.5104 1.875 9.375 1.875Z" transform="translate(4.09457 3.75)" fill="black"/>
</svg>
